<?xml version="1.0" standalone="no"?>
<!DOCTYPE svg PUBLIC "-//W3C//DTD SVG 20010904//EN"
 "http://www.w3.org/TR/2001/REC-SVG-20010904/DTD/svg10.dtd">
<svg version="1.0" xmlns="http://www.w3.org/2000/svg"
  xmlns:xlink="http://www.w3.org/1999/xlink"
  viewBox="0 0 56 29">
  <g clip-path="url(#clip0_13_1963)">
  <path d="M0.321603 8.94545C0.191221 9.04558 0.00303052 8.95373 0.000778238 8.78897C-0.0224953 7.06926 0.42308 0.428193 8.66454 0.0704477C19.9384 -0.418927 33.327 20.5364 40.9972 23.046C42.8577 23.6547 44.6474 23.3486 45.4794 23.1384C45.6551 23.094 45.794 23.2886 45.6955 23.4411C44.8531 24.7457 42.0369 28.4829 37.281 28.7302C28.8349 29.1694 13.9324 7.12247 6.4498 6.88405C3.44163 6.78818 1.12279 8.33022 0.321603 8.94545Z" fill="white"/>
<path d="M21.6528 4.5186C21.5384 4.53178 21.4295 4.52438 21.4279 4.40893C21.4115 3.20344 24.5703 0.376737 28.8349 0.0203716C35.892 -0.569388 41.8731 11.8156 49.6935 15.1659C50.955 15.7063 52.9719 15.1034 53.5552 14.9561C53.6783 14.925 53.7756 15.0614 53.7067 15.1683C53.1163 16.0828 50.9643 20.662 45.9772 20.662C40.0087 20.662 28.393 6.34623 25.0185 4.77609C23.4545 4.0483 22.466 4.42475 21.6528 4.5186Z" fill="white"/>
<path d="M39.3291 2.47352C39.1887 2.34932 39.2056 2.12515 39.3627 2.02307C40.7494 1.1218 46.6162 -2.16421 52.0791 2.68497C56.4434 6.55891 54.4274 10.7812 53.1101 11.4529C51.5339 12.2568 50.4 11.9921 49.4732 11.3994C44.8 8.41075 40.6 3.8549 39.3291 2.47352Z" fill="white"/>
</g>
<defs>
<clipPath id="clip0_13_1963">
<rect width="56" height="28.7368" fill="white"/>
</clipPath>
</defs>

</svg>
